# xmcd
# 
# Track frame offsets:
#     150
#     11800
#     26852
#     38979
#     54214
#     64711
#     76776
#     86678
#     98028
#     113215
#     126575
#     139892
# 
# Disc length: 2079
# 
# Revision: 0
# Processed by: cddbd v1.5.2PL0 Copyright (c) Steve Scherf et al.
# Submitted via: BonkEnc v1.0.8
# 
DISCID=9f081d0c
DTITLE=Bob Jones - Heart of the Country
DYEAR=0
DGENRE=Country
TTITLE0=Mama Tried
TTITLE1=If Drinking Don't Kill Me (Her Memory Will)
TTITLE2=Crazy Arms
TTITLE3=Holding Things Together
TTITLE4=The Auctioneer
TTITLE5=There Stands the Glass
TTITLE6=My Heart Skips a Beat
TTITLE7=I'm So Lonesome I Could Cry
TTITLE8=He Stopped Loving Her Today
TTITLE9=What You Gonna Do with a Cowboy?
TTITLE10=Farewell Party
TTITLE11=Another Place, Another Time
EXTD=first solo country album from this former member of the Grand Ole Opry
EXTT0=
EXTT1=
EXTT2=
EXTT3=
EXTT4=
EXTT5=
EXTT6=
EXTT7=
EXTT8=
EXTT9=
EXTT10=
EXTT11=
PLAYORDER=
